REM DIRINDEX 1\2,1\3,1\4,1\5
REM DIRNAME cjc005,folder01,folder02,folder03,folder04
TITLE ""
FILE "P1Q_t_1013-1022.mp3" MP3
  TRACK 01 AUDIO
    TITLE "3:cjc005_3944"
    INDEX 01 00:00:00
  TRACK 02 AUDIO
    TITLE "0:"
    INDEX 01 00:01:30
  TRACK 03 AUDIO
    TITLE "4:cjc005_3945"
    INDEX 01 00:01:54
  TRACK 04 AUDIO
    TITLE "0:"
    INDEX 01 00:03:31
  TRACK 05 AUDIO
    TITLE "5:cjc005_3946"
    INDEX 01 00:03:57
  TRACK 06 AUDIO
    TITLE "0:"
    INDEX 01 00:07:70
  TRACK 07 AUDIO
    TITLE "3:cjc005_3947"
    INDEX 01 00:08:46
  TRACK 08 AUDIO
    TITLE "0:"
    INDEX 01 00:09:69
  TRACK 09 AUDIO
    TITLE "4:cjc005_3948"
    INDEX 01 00:10:21
  TRACK 10 AUDIO
    TITLE "0:"
    INDEX 01 00:11:44
  TRACK 11 AUDIO
    TITLE "5:cjc005_3949"
    INDEX 01 00:11:68
  TRACK 12 AUDIO
    TITLE "0:"
    INDEX 01 00:15:58
  TRACK 13 AUDIO
    TITLE "3:cjc005_3950"
    INDEX 01 00:16:34
  TRACK 14 AUDIO
    TITLE "0:"
    INDEX 01 00:17:53
  TRACK 15 AUDIO
    TITLE "4:cjc005_3951"
    INDEX 01 00:18:09
  TRACK 16 AUDIO
    TITLE "0:"
    INDEX 01 00:19:11
  TRACK 17 AUDIO
    TITLE "5:cjc005_3952"
    INDEX 01 00:19:38
  TRACK 18 AUDIO
    TITLE "0:"
    INDEX 01 00:23:03
  TRACK 19 AUDIO
    TITLE "3:cjc005_3953"
    INDEX 01 00:23:61
  TRACK 20 AUDIO
    TITLE "0:"
    INDEX 01 00:25:05
  TRACK 21 AUDIO
    TITLE "4:cjc005_3954"
    INDEX 01 00:25:35
  TRACK 22 AUDIO
    TITLE "0:"
    INDEX 01 00:26:58
  TRACK 23 AUDIO
    TITLE "5:cjc005_3955"
    INDEX 01 00:27:08
  TRACK 24 AUDIO
    TITLE "0:"
    INDEX 01 00:31:16
  TRACK 25 AUDIO
    TITLE "3:cjc005_3956"
    INDEX 01 00:31:67
  TRACK 26 AUDIO
    TITLE "0:"
    INDEX 01 00:33:26
  TRACK 27 AUDIO
    TITLE "4:cjc005_3957"
    INDEX 01 00:33:52
  TRACK 28 AUDIO
    TITLE "0:"
    INDEX 01 00:35:08
  TRACK 29 AUDIO
    TITLE "5:cjc005_3958"
    INDEX 01 00:35:33
  TRACK 30 AUDIO
    TITLE "0:"
    INDEX 01 00:38:45
  TRACK 31 AUDIO
    TITLE "3:cjc005_3959"
    INDEX 01 00:39:25
  TRACK 32 AUDIO
    TITLE "0:"
    INDEX 01 00:40:48
  TRACK 33 AUDIO
    TITLE "4:cjc005_3960"
    INDEX 01 00:40:70
  TRACK 34 AUDIO
    TITLE "0:"
    INDEX 01 00:42:27
  TRACK 35 AUDIO
    TITLE "5:cjc005_3961"
    INDEX 01 00:42:47
  TRACK 36 AUDIO
    TITLE "0:"
    INDEX 01 00:45:41
  TRACK 37 AUDIO
    TITLE "3:cjc005_3962"
    INDEX 01 00:46:27
  TRACK 38 AUDIO
    TITLE "0:"
    INDEX 01 00:47:46
  TRACK 39 AUDIO
    TITLE "4:cjc005_3963"
    INDEX 01 00:48:00
  TRACK 40 AUDIO
    TITLE "0:"
    INDEX 01 00:49:23
  TRACK 41 AUDIO
    TITLE "5:cjc005_3964"
    INDEX 01 00:49:45
  TRACK 42 AUDIO
    TITLE "0:"
    INDEX 01 00:53:02
  TRACK 43 AUDIO
    TITLE "3:cjc005_3965"
    INDEX 01 00:53:51
  TRACK 44 AUDIO
    TITLE "0:"
    INDEX 01 00:54:72
  TRACK 45 AUDIO
    TITLE "4:cjc005_3966"
    INDEX 01 00:55:26
  TRACK 46 AUDIO
    TITLE "0:"
    INDEX 01 00:57:29
  TRACK 47 AUDIO
    TITLE "5:cjc005_3967"
    INDEX 01 00:57:48
  TRACK 48 AUDIO
    TITLE "0:"
    INDEX 01 01:01:72
  TRACK 49 AUDIO
    TITLE "3:cjc005_3968"
    INDEX 01 01:02:50
  TRACK 50 AUDIO
    TITLE "0:"
    INDEX 01 01:03:67
  TRACK 51 AUDIO
    TITLE "4:cjc005_3969"
    INDEX 01 01:04:25
  TRACK 52 AUDIO
    TITLE "0:"
    INDEX 01 01:05:71
  TRACK 53 AUDIO
    TITLE "5:cjc005_3970"
    INDEX 01 01:06:22
  TRACK 54 AUDIO
    TITLE "0:"
    INDEX 01 01:09:44
  TRACK 55 AUDIO
    TITLE "3:cjc005_3971"
    INDEX 01 01:10:18
  TRACK 56 AUDIO
    TITLE "0:"
    INDEX 01 01:11:45
  TRACK 57 AUDIO
    TITLE "4:cjc005_3972"
    INDEX 01 01:11:74
  TRACK 58 AUDIO
    TITLE "0:"
    INDEX 01 01:13:32
  TRACK 59 AUDIO
    TITLE "5:cjc005_3973"
    INDEX 01 01:13:53
  TRACK 60 AUDIO
    TITLE "0:"
    INDEX 01 01:17:49
